<?xml version="1.0" standalone="no"?>
<!DOCTYPE svg PUBLIC "-//W3C//DTD SVG 20010904//EN"
 "http://www.w3.org/TR/2001/REC-SVG-20010904/DTD/svg10.dtd">
<svg version="1.0" xmlns="http://www.w3.org/2000/svg"
 width="345.000000pt" height="375.000000pt" viewBox="0 0 345.000000 375.000000"
 preserveAspectRatio="xMidYMid meet">
<metadata>
Created by potrace 1.16, written by Peter Selinger 2001-2019
</metadata>
<g transform="translate(0.000000,375.000000) scale(0.100000,-0.100000)"
fill="#000000" stroke="none">
<path d="M1817 3673 c-4 -3 -7 -17 -7 -30 0 -52 -23 -113 -55 -146 -44 -45
-101 -72 -231 -108 -172 -48 -259 -101 -314 -192 -19 -31 -39 -58 -45 -61 -22
-8 -74 23 -91 56 -24 47 -22 131 4 192 26 57 28 99 6 120 -20 21 -32 20 -101
-5 -44 -17 -74 -38 -124 -89 -86 -87 -110 -146 -117 -282 -6 -127 19 -214 83
-292 l44 -54 -37 -7 c-55 -10 -220 -73 -282 -108 -75 -41 -168 -116 -230 -184
-130 -142 -217 -323 -196 -406 8 -32 100 -71 221 -93 104 -19 167 -14 279 20
67 21 76 22 72 8 -24 -77 -38 -166 -43 -268 -7 -152 10 -239 75 -367 36 -74
62 -108 128 -175 l83 -83 -35 -76 c-38 -85 -86 -242 -106 -348 -7 -39 -13
-145 -13 -238 l0 -168 -25 -5 c-105 -21 -199 -47 -220 -63 -80 -58 26 -105
353 -155 248 -39 469 -49 900 -43 287 4 428 10 567 26 371 40 549 76 594 117
26 25 26 27 10 45 -20 22 -85 44 -176 60 l-67 11 16 33 c15 31 20 33 92 45
148 23 247 90 287 195 15 40 20 45 64 55 135 32 210 163 197 340 -7 93 -33
211 -51 236 -13 17 -15 17 -43 -7 -36 -30 -58 -39 -181 -73 -118 -33 -191 -78
-229 -143 -25 -43 -28 -58 -28 -133 0 -62 5 -94 18 -119 9 -19 14 -38 9 -43
-11 -11 -100 -37 -106 -30 -4 3 -6 29 -6 57 0 127 -68 373 -147 530 -45 90
-112 190 -159 238 -34 34 -35 39 -21 55 28 31 96 185 118 267 13 47 23 126 26
192 l5 111 38 -13 c74 -26 184 -37 263 -26 165 23 274 82 293 157 11 45 -67
238 -139 344 -133 195 -308 304 -523 326 l-62 7 18 31 c41 70 53 202 29 301
-28 119 -121 235 -224 284 -56 26 -71 25 -98 -11 l-20 -27 40 -44 c22 -24 46
-61 53 -82 15 -47 7 -112 -17 -137 -19 -18 -20 -18 -63 13 -49 36 -161 89
-186 89 -8 0 -14 3 -12 8 36 69 43 93 42 152 0 68 -13 102 -56 151 -45 51
-120 84 -141 62z m13 -238 c0 -19 -24 -51 -86 -114 l-85 -89 68 -6 c190 -17
231 -24 292 -51 62 -28 131 -93 131 -123 0 -11 11 -12 53 -7 28 4 62 11 74 16
32 12 57 -14 41 -41 -9 -14 -10 -22 -1 -31 16 -16 -30 -61 -62 -61 -17 0 -24
-5 -21 -13 4 -12 -40 -36 -129 -68 -57 -21 -58 -44 -1 -52 25 -4 53 -4 62 -1
22 8 40 -4 23 -15 -36 -22 -165 -3 -209 32 -21 16 -21 18 -5 13 19 -5 19 -5 1
10 -10 8 -15 19 -12 25 4 5 1 13 -5 17 -8 4 -9 3 -5 -4 4 -7 3 -12 -3 -12 -6
0 -7 -7 -4 -17 4 -11 3 -14 -5 -9 -7 4 -12 15 -12 24 0 12 -3 13 -11 5 -9 -9
-16 -9 -29 0 -25 15 -53 -8 -44 -37 8 -26 52 -90 94 -136 30 -34 30 -35 10
-44 -33 -15 -176 10 -248 44 -61 28 -172 125 -172 150 0 5 -4 10 -10 10 -14 0
-12 -17 6 -56 9 -19 15 -37 12 -39 -8 -9 -78 46 -78 61 0 8 -4 12 -10 9 -5 -3
-8 0 -5 7 2 7 -2 47 -10 88 l-15 75 4 -77 c1 -43 -1 -78 -5 -78 -14 0 -57 82
-70 132 -13 47 -9 83 16 142 8 18 7 18 -19 1 -34 -23 -42 -15 -22 23 33 65
127 123 220 137 49 8 141 66 226 143 25 23 48 41 53 42 4 0 7 -11 7 -25z
m-903 -178 c1 -78 26 -140 78 -190 51 -49 101 -64 168 -50 29 6 54 9 56 7 11
-10 -31 -74 -64 -99 -31 -24 -41 -27 -83 -21 -61 8 -145 65 -189 130 -38 55
-43 109 -19 190 12 41 41 96 49 96 2 0 4 -28 4 -63z m431 -593 c32 -9 95 -36
142 -59 138 -70 182 -80 360 -80 148 0 158 1 220 28 69 31 106 34 183 16 54
-13 65 -28 97 -132 35 -115 44 -189 43 -362 0 -155 -3 -178 -27 -260 -29 -97
-55 -155 -87 -195 -12 -15 -7 0 11 35 28 53 31 66 26 114 -17 146 -124 243
-323 293 -79 20 -113 22 -343 23 -280 0 -427 -15 -613 -62 -105 -26 -148 -43
-181 -72 -18 -16 -18 -13 -13 89 8 150 32 308 62 405 23 77 29 87 83 133 31
27 68 55 82 62 78 42 185 51 278 24z m1325 -24 c74 -23 162 -83 225 -155 44
-50 122 -194 122 -226 0 -24 -53 -62 -114 -83 -75 -24 -166 -21 -270 11 -96
29 -91 24 -121 128 -10 33 -20 67 -23 75 -3 8 8 3 24 -11 132 -118 252 -178
335 -165 49 7 106 38 116 61 10 27 -29 108 -75 157 -83 89 -198 137 -381 159
-76 9 -105 17 -118 31 -27 30 -3 38 113 38 74 0 120 -5 167 -20z m-1823 -28
c0 -5 -27 -16 -61 -26 -125 -34 -262 -119 -353 -216 -62 -68 -113 -158 -103
-183 9 -23 110 -50 155 -42 88 15 134 38 198 97 35 33 64 58 64 55 0 -3 -5
-29 -11 -57 -11 -50 -12 -51 -80 -85 -129 -66 -200 -72 -341 -34 -58 16 -60
26 -17 112 73 145 169 244 304 312 99 50 245 90 245 67z m1015 -593 c85 -10
209 -45 265 -74 39 -20 119 -95 135 -126 21 -39 19 -119 -4 -171 -10 -24 -40
-70 -67 -103 -26 -33 -41 -54 -31 -46 28 23 19 -3 -12 -33 -18 -17 -34 -25
-42 -21 -7 5 -10 4 -5 -3 14 -23 -157 -116 -284 -154 -136 -41 -400 -35 -560
14 -182 56 -364 190 -435 319 -25 46 -29 64 -28 130 0 41 6 92 12 111 15 45
57 76 82 60 13 -8 20 -8 29 3 22 27 198 66 395 89 149 17 430 20 550 5z m431
-712 c-22 -75 -20 -134 5 -182 30 -56 66 -93 121 -121 26 -13 61 -42 79 -63
17 -22 44 -43 59 -46 26 -6 28 -11 35 -72 12 -112 -14 -455 -36 -469 -12 -7
-11 75 2 173 12 83 7 125 -12 106 -5 -5 -17 -63 -26 -129 -9 -65 -21 -125 -26
-131 -5 -7 -28 -13 -51 -13 -23 0 -56 -4 -75 -10 l-34 -9 5 144 c3 79 4 146 1
149 -5 4 -43 -62 -90 -157 -13 -26 -33 -82 -43 -124 -11 -42 -21 -77 -23 -78
-1 -2 -97 -6 -214 -10 l-212 -7 -3 172 c-3 155 -5 173 -22 186 -10 7 -22 12
-25 10 -15 -10 -51 -149 -57 -218 -5 -67 -8 -78 -24 -78 -25 0 -31 11 -46 93
-16 82 -48 137 -81 137 -23 0 -23 -1 -23 -150 l0 -150 -135 0 -134 0 -3 157
c-3 151 -4 156 -16 111 -9 -28 -21 -48 -32 -51 -11 -3 -25 -26 -37 -63 l-20
-59 -89 -5 c-49 -3 -91 -5 -93 -3 -2 1 -5 39 -8 85 -14 212 72 525 194 709
l25 37 66 -19 c302 -88 535 -76 825 44 112 47 232 114 262 148 26 28 29 17 11
-44z"/>
<path d="M1165 2606 c-65 -21 -99 -42 -144 -91 -64 -70 -85 -124 -86 -220 0
-83 19 -143 44 -137 7 1 11 -3 9 -10 -3 -7 2 -19 11 -26 10 -9 11 -11 2 -6 -8
4 -1 -9 15 -29 16 -20 34 -37 40 -37 26 0 73 13 70 19 -2 3 22 7 54 7 125 2
221 56 273 154 25 48 28 64 25 120 -2 46 -11 80 -31 117 -24 46 -25 53 -11 61
11 6 13 11 5 16 -6 4 -11 2 -11 -5 0 -7 -15 1 -32 18 -36 33 -114 63 -162 62
-17 0 -49 -6 -71 -13z m17 -195 c37 -43 72 -62 117 -63 33 0 41 -4 41 -19 0
-24 -23 -35 -91 -43 -51 -6 -59 -5 -87 19 -39 32 -61 97 -42 120 18 22 35 19
62 -14z"/>
<path d="M1895 2466 c-17 -7 -39 -26 -49 -41 -23 -35 -32 -131 -17 -178 44
-133 211 -79 211 67 -1 72 -30 133 -74 151 -41 18 -34 17 -71 1z"/>
<path d="M1828 1933 c-62 -10 -117 -96 -84 -132 9 -10 16 -23 16 -29 0 -6 12
-20 26 -31 34 -27 108 -28 146 -3 71 47 87 110 40 155 -26 25 -83 49 -107 46
-5 -1 -22 -4 -37 -6z"/>
<path d="M979 1777 c-66 -44 -43 -137 34 -137 67 0 146 80 115 117 -15 19 -70
43 -96 43 -11 0 -34 -10 -53 -23z"/>
<path d="M1584 1609 c-99 -13 -196 -86 -164 -124 17 -21 33 -19 93 12 43 23
65 27 127 28 77 0 91 -6 188 -66 26 -17 35 -19 47 -9 21 17 19 34 -9 67 -56
66 -177 106 -282 92z"/>
</g>
</svg>
