<?xml version="1.0" encoding="UTF-8"?>
<svg version="1.1" xmlns="http://www.w3.org/2000/svg" width="200" height="200">
<path d="M0 0 C66 0 132 0 200 0 C200 66 200 132 200 200 C134 200 68 200 0 200 C0 134 0 68 0 0 Z " fill="#34352F" transform="translate(0,0)"/>
<path d="M0 0 C0.495 0.99 0.495 0.99 1 2 C1.78375 1.87625 2.5675 1.7525 3.375 1.625 C9.39759724 2.2480273 14.6023136 5.41703783 18.71875 9.8515625 C21.9544808 14.27247377 23.12295969 17.70694321 23.14044189 23.09037781 C23.14615204 24.14312393 23.15186218 25.19587006 23.15774536 26.28051758 C23.15942215 28.01277588 23.15942215 28.01277588 23.16113281 29.7800293 C23.16609772 30.99656693 23.17106262 32.21310455 23.17617798 33.46650696 C23.18828887 36.80561899 23.19574578 40.14466838 23.20018864 43.48379493 C23.20312172 45.57188483 23.20722706 47.65996927 23.21169281 49.74805641 C23.22536796 56.28664235 23.23503354 62.82521576 23.2388947 69.36381501 C23.24337038 76.90102153 23.26089527 84.43804624 23.2898953 91.97519749 C23.31155191 97.80718564 23.32160116 103.63912279 23.32293582 109.4711507 C23.32398136 112.95122794 23.32983476 116.4311343 23.34775543 119.91116905 C23.36738351 123.79850423 23.36293129 127.68561461 23.35644531 131.57299805 C23.3656601 132.71771576 23.37487488 133.86243347 23.3843689 135.0418396 C23.3430376 142.95939891 22.27875259 148.51484898 17.875 155.25 C11.11535734 161.71574515 3.7731671 162.5899352 -5.26782227 162.51757812 C-6.35843964 162.5245874 -7.44905701 162.53159668 -8.57272339 162.53881836 C-12.15421502 162.55632938 -15.7349075 162.54480021 -19.31640625 162.53125 C-21.81786754 162.53394668 -24.31932781 162.53783057 -26.82078552 162.54284668 C-32.72198998 162.54948429 -38.62290735 162.53554674 -44.52406973 162.5142436 C-49.22018253 162.49921896 -53.91596014 162.50454678 -58.61206055 162.52148438 C-65.10642626 162.54470217 -71.60046886 162.54829265 -78.09486198 162.53526306 C-80.56394464 162.53260057 -83.03304117 162.53584866 -85.50210762 162.54518127 C-88.95563126 162.55537239 -92.40812507 162.53980877 -95.86157227 162.51757812 C-96.87530411 162.52567505 -97.88903595 162.53377197 -98.93348694 162.54211426 C-105.77418557 162.46079147 -111.59213566 161.39842979 -116.59320927 156.41120148 C-117.79385819 154.99342148 -118.90725709 153.50252151 -120 152 C-119.34 151.38125 -118.68 150.7625 -118 150.125 C-115.7715451 148.24362573 -115.7715451 148.24362573 -116 146 C-115.01 146 -114.02 146 -113 146 C-112.38125 146.78375 -111.7625 147.5675 -111.125 148.375 C-108.66047001 151.4194194 -107.73352801 151.94405669 -104 153 C-100.53741948 153.29286866 -97.08684848 153.28341654 -93.61352539 153.2746582 C-92.56904739 153.27976913 -91.5245694 153.28488007 -90.44844055 153.29014587 C-86.99812072 153.30403829 -83.54800071 153.30308539 -80.09765625 153.30078125 C-77.69778875 153.30466824 -75.29792195 153.30900291 -72.89805603 153.31376648 C-67.86861948 153.32122785 -62.83925313 153.32093788 -57.80981445 153.31567383 C-51.36579193 153.30987802 -44.92205672 153.32681357 -38.4780817 153.3500185 C-33.52211325 153.36475205 -28.56621406 153.36562806 -23.61022758 153.36250877 C-21.23438383 153.36302213 -18.85853622 153.36826253 -16.4827137 153.37832069 C-13.16024233 153.39066067 -9.83833158 153.38390769 -6.51586914 153.37231445 C-5.53541626 153.37995819 -4.55496338 153.38760193 -3.5447998 153.39547729 C1.67874569 153.35520299 5.60555563 153.13848243 10 150 C15.11295588 144.68018634 14.56119623 138.96869657 14.50170898 132.01538086 C14.50711197 130.81309341 14.51251495 129.61080597 14.51808167 128.37208557 C14.52842321 125.08685225 14.52089355 121.80227687 14.50437045 118.51708674 C14.49048223 115.07344485 14.49698419 111.62983231 14.50050354 108.18617249 C14.50320234 102.40519777 14.48975747 96.62443107 14.46655273 90.84350586 C14.43993232 84.16553027 14.43820103 77.48790212 14.4499411 70.80989164 C14.46072923 64.37699064 14.45452455 57.94421499 14.44038582 51.51132393 C14.43463621 48.7773701 14.43470055 46.0435083 14.43945122 43.30955315 C14.44235801 39.49122972 14.42588101 35.67347609 14.40405273 31.85522461 C14.40855438 30.72313568 14.41305603 29.59104675 14.41769409 28.4246521 C14.40778946 27.38309464 14.39788483 26.34153717 14.38768005 25.26841736 C14.38525016 24.36640059 14.38282026 23.46438383 14.38031673 22.53503323 C13.79076846 18.60534954 12.00013479 15.93345914 9.125 13.25 C6.74259385 11.84858462 4.70258282 11.48164842 2 11 C2.00368717 11.58015114 2.00737434 12.16030228 2.01117325 12.75803375 C2.09964734 26.89755209 2.16576926 41.03702874 2.20724869 55.17676544 C2.22784287 62.01475488 2.25590277 68.85255914 2.30175781 75.69042969 C2.34600045 82.29102658 2.36914728 88.89148185 2.37950897 95.49223328 C2.38689193 98.0087944 2.4013091 100.52534518 2.42292023 103.04182434 C2.45201444 106.57043073 2.45595332 110.09824582 2.45410156 113.62695312 C2.46848267 114.66417511 2.48286377 115.70139709 2.49768066 116.77005005 C2.46236221 123.00181613 1.65434885 127.83309285 -2 133 C-4.75 135.5 -4.75 135.5 -7 137 C-7 136.34 -7 135.68 -7 135 C-8.98 134.01 -8.98 134.01 -11 133 C-9.84826645 130.53199953 -8.95216435 128.95216435 -7 127 C-7.61875 127.495 -8.2375 127.99 -8.875 128.5 C-11 130 -11 130 -13 130 C-13.66 131.32 -14.32 132.64 -15 134 C-48 133.67 -81 133.34 -115 133 C-115.16043524 105.03970336 -115.16043524 105.03970336 -115.1953125 93.125 C-115.21922751 84.99370797 -115.24692642 76.8625947 -115.30175781 68.73144531 C-115.34594084 62.17624738 -115.36913543 55.62117006 -115.37950897 49.06583023 C-115.38690204 46.56436243 -115.40133882 44.06290525 -115.42292023 41.56151962 C-115.45193973 38.05884678 -115.45595645 34.55697286 -115.45410156 31.05419922 C-115.47567322 29.50160652 -115.47567322 29.50160652 -115.49768066 27.91764832 C-115.46265881 21.80931714 -114.69310189 18.82958171 -111 14 C-111.8345262 11.49642139 -112.79371992 9.33214148 -114 7 C-113.360625 6.87625 -112.72125 6.7525 -112.0625 6.625 C-111.381875 6.41875 -110.70125 6.2125 -110 6 C-109.67 5.34 -109.34 4.68 -109 4 C-106.2791335 3.0930445 -104.68108825 2.87007806 -101.88322449 2.85523987 C-101.04635605 2.84834137 -100.20948761 2.84144287 -99.34725952 2.83433533 C-98.43239777 2.83172195 -97.51753601 2.82910858 -96.57495117 2.82641602 C-95.1257151 2.8163855 -95.1257151 2.8163855 -93.64720154 2.80615234 C-91.54701693 2.79209465 -89.44681697 2.78020289 -87.34660912 2.77020454 C-84.02197587 2.75380268 -80.69745607 2.73056448 -77.37287903 2.70530701 C-67.91946053 2.63451246 -58.46599548 2.57443383 -49.01245117 2.52319336 C-43.23177187 2.49138084 -37.45122254 2.45009812 -31.67064857 2.40299797 C-29.46788181 2.38699026 -27.26508509 2.37466302 -25.06227684 2.36609077 C-21.97912801 2.35392084 -18.89628402 2.32976306 -15.81323242 2.30297852 C-14.45004883 2.3020948 -14.45004883 2.3020948 -13.05932617 2.30119324 C-8.31145787 2.24660931 -4.46236924 1.83429785 0 0 Z " fill="#020202" transform="translate(160,28)"/>
<path d="M0 0 C66 0 132 0 200 0 C200 66 200 132 200 200 C134 200 68 200 0 200 C0 134 0 68 0 0 Z M20.625 16.4375 C20.16351562 16.99308594 19.70203125 17.54867188 19.2265625 18.12109375 C16.63328107 22.09360448 15.74968943 25.64377657 15.72584534 30.35539246 C15.71587021 31.41641174 15.70589508 32.47743103 15.69561768 33.57060242 C15.694953 34.72445938 15.69428833 35.87831635 15.69360352 37.06713867 C15.68528 38.29050934 15.67695648 39.51388 15.66838074 40.77432251 C15.64842889 44.1238347 15.63764245 47.47309843 15.63255429 50.82264876 C15.6289042 52.9191487 15.62266064 55.01562498 15.6155529 57.11211586 C15.59106982 64.43746611 15.57800985 71.76274571 15.57446289 79.08813477 C15.57083273 85.89729914 15.54097224 92.70601137 15.49905831 99.51503772 C15.46426107 105.37513448 15.4489128 111.23508214 15.44821686 117.09528142 C15.44742696 120.58892479 15.43882339 124.08210767 15.41021919 127.57564354 C15.37897197 131.47923288 15.38814324 135.38218314 15.40063477 139.28588867 C15.38580048 140.42962448 15.37096619 141.57336029 15.35568237 142.75175476 C15.42824196 150.74161706 17.01475955 157.55256875 22.47812748 163.64955425 C26.94032609 167.60912186 31.07726614 169.33844193 37 169 C37.0928125 170.485 37.0928125 170.485 37.1875 172 C38.03244314 177.86699958 41.27518377 182.36142458 45.5 186.375 C49.53960029 189.00074019 53.00207799 190.2466644 57.82389832 190.27415466 C58.76711945 190.28412979 59.71034058 190.29410492 60.68214417 190.30438232 C61.70509079 190.305047 62.72803741 190.30571167 63.78198242 190.30639648 C65.41221344 190.31888176 65.41221344 190.31888176 67.07537842 190.33161926 C70.66877833 190.35571596 74.2619966 190.36449193 77.85546875 190.37109375 C80.35785476 190.38006164 82.86024021 190.38918351 85.36262512 190.39845276 C90.61065413 190.41494533 95.85863892 190.42267602 101.10668945 190.42553711 C106.48512376 190.42876561 111.86315018 190.44986408 117.24145508 190.48706055 C123.74416664 190.53135497 130.24649466 190.55100348 136.74935341 190.55226326 C139.22239249 190.5564592 141.69543224 190.56886815 144.16838646 190.58978081 C147.63638425 190.61676888 151.10299419 190.61184586 154.57104492 190.59936523 C155.58387039 190.61419952 156.59669586 190.62903381 157.64021301 190.64431763 C164.73994216 190.57190799 170.02219503 188.87101286 176 185 C178.2848746 182.83851615 178.2848746 182.83851615 179.5625 180.4375 C180.01753906 179.69371094 180.47257813 178.94992188 180.94140625 178.18359375 C182.78934177 174.37180056 183.1274977 171.00205839 183.14717102 166.78936768 C183.15432632 165.73524689 183.16148163 164.6811261 183.16885376 163.59506226 C183.17154266 162.44381866 183.17423157 161.29257507 183.17700195 160.10644531 C183.18685875 158.28141983 183.18685875 158.28141983 183.19691467 156.41952515 C183.21664187 152.38905592 183.22831252 148.35862644 183.23828125 144.328125 C183.24233067 142.93777192 183.24644764 141.54741903 183.25063133 140.15706635 C183.26967232 133.62382665 183.28390555 127.09059818 183.2922433 120.55733609 C183.30201154 113.02857603 183.32832453 105.5001103 183.36874419 97.97145391 C183.39895305 92.14369312 183.41371668 86.3160165 183.41702431 80.48817897 C183.41936939 77.01140815 183.4282584 73.53495216 183.45348549 70.05826569 C183.481203 66.17579335 183.47692047 62.29370515 183.4699707 58.41113281 C183.48278076 57.26798615 183.49559082 56.12483948 183.50878906 54.947052 C183.45944483 47.3760941 182.5452169 41.58676241 177 35.9765625 C176.34 35.53054687 175.68 35.08453125 175 34.625 C174.34 34.16351563 173.68 33.70203125 173 33.2265625 C169.10515166 30.83792504 166.63964654 29.74224186 162 30 C161.9175 28.80375 161.835 27.6075 161.75 26.375 C161.03826767 21.05573733 159.1629372 17.67011607 154.83984375 14.33203125 C150.01280128 11.02766559 146.35384256 8.88383589 140.40315247 8.85282898 C139.45979034 8.84567368 138.51642822 8.83851837 137.54447937 8.83114624 C136.5112001 8.82845734 135.47792084 8.82576843 134.41333008 8.82299805 C133.32358887 8.81642685 132.23384766 8.80985565 131.11108398 8.80308533 C127.4972324 8.78334158 123.8834224 8.77168681 120.26953125 8.76171875 C118.41861657 8.75560546 118.41861657 8.75560546 116.53030968 8.74936867 C110.67196053 8.73065452 104.81362773 8.71609055 98.95525438 8.7077567 C92.20526575 8.69799471 85.45560595 8.67170124 78.70573312 8.63125581 C72.85007164 8.59737981 66.99451979 8.58560527 61.13876915 8.58155251 C58.65291808 8.57668352 56.1670706 8.56506077 53.68128395 8.54651451 C50.19847146 8.52214636 46.71651437 8.5230845 43.23364258 8.5300293 C42.21048447 8.51721924 41.18732635 8.50440918 40.13316345 8.49121094 C32.44841384 8.54694322 25.63181125 10.17175066 20.625 16.4375 Z " fill="#FEFEFE" transform="translate(0,0)"/>
<path d="M0 0 C0.495 0.99 0.495 0.99 1 2 C1.78375 1.87625 2.5675 1.7525 3.375 1.625 C9.39759724 2.2480273 14.6023136 5.41703783 18.71875 9.8515625 C21.9544808 14.27247377 23.12295969 17.70694321 23.14044189 23.09037781 C23.14615204 24.14312393 23.15186218 25.19587006 23.15774536 26.28051758 C23.15942215 28.01277588 23.15942215 28.01277588 23.16113281 29.7800293 C23.16609772 30.99656693 23.17106262 32.21310455 23.17617798 33.46650696 C23.18828887 36.80561899 23.19574578 40.14466838 23.20018864 43.48379493 C23.20312172 45.57188483 23.20722706 47.65996927 23.21169281 49.74805641 C23.22536796 56.28664235 23.23503354 62.82521576 23.2388947 69.36381501 C23.24337038 76.90102153 23.26089527 84.43804624 23.2898953 91.97519749 C23.31155191 97.80718564 23.32160116 103.63912279 23.32293582 109.4711507 C23.32398136 112.95122794 23.32983476 116.4311343 23.34775543 119.91116905 C23.36738351 123.79850423 23.36293129 127.68561461 23.35644531 131.57299805 C23.3656601 132.71771576 23.37487488 133.86243347 23.3843689 135.0418396 C23.3430376 142.95939891 22.27875259 148.51484898 17.875 155.25 C11.11535734 161.71574515 3.7731671 162.5899352 -5.26782227 162.51757812 C-6.35843964 162.5245874 -7.44905701 162.53159668 -8.57272339 162.53881836 C-12.15421502 162.55632938 -15.7349075 162.54480021 -19.31640625 162.53125 C-21.81786754 162.53394668 -24.31932781 162.53783057 -26.82078552 162.54284668 C-32.72198998 162.54948429 -38.62290735 162.53554674 -44.52406973 162.5142436 C-49.22018253 162.49921896 -53.91596014 162.50454678 -58.61206055 162.52148438 C-65.10642626 162.54470217 -71.60046886 162.54829265 -78.09486198 162.53526306 C-80.56394464 162.53260057 -83.03304117 162.53584866 -85.50210762 162.54518127 C-88.95563126 162.55537239 -92.40812507 162.53980877 -95.86157227 162.51757812 C-96.87530411 162.52567505 -97.88903595 162.53377197 -98.93348694 162.54211426 C-105.77418557 162.46079147 -111.59213566 161.39842979 -116.59320927 156.41120148 C-117.79385819 154.99342148 -118.90725709 153.50252151 -120 152 C-119.34 151.38125 -118.68 150.7625 -118 150.125 C-115.7715451 148.24362573 -115.7715451 148.24362573 -116 146 C-115.01 146 -114.02 146 -113 146 C-112.38125 146.78375 -111.7625 147.5675 -111.125 148.375 C-108.66047001 151.4194194 -107.73352801 151.94405669 -104 153 C-100.53741948 153.29286866 -97.08684848 153.28341654 -93.61352539 153.2746582 C-92.56904739 153.27976913 -91.5245694 153.28488007 -90.44844055 153.29014587 C-86.99812072 153.30403829 -83.54800071 153.30308539 -80.09765625 153.30078125 C-77.69778875 153.30466824 -75.29792195 153.30900291 -72.89805603 153.31376648 C-67.86861948 153.32122785 -62.83925313 153.32093788 -57.80981445 153.31567383 C-51.36579193 153.30987802 -44.92205672 153.32681357 -38.4780817 153.3500185 C-33.52211325 153.36475205 -28.56621406 153.36562806 -23.61022758 153.36250877 C-21.23438383 153.36302213 -18.85853622 153.36826253 -16.4827137 153.37832069 C-13.16024233 153.39066067 -9.83833158 153.38390769 -6.51586914 153.37231445 C-5.53541626 153.37995819 -4.55496338 153.38760193 -3.5447998 153.39547729 C1.67874569 153.35520299 5.60555563 153.13848243 10 150 C15.11295588 144.68018634 14.56119623 138.96869657 14.50170898 132.01538086 C14.50711197 130.81309341 14.51251495 129.61080597 14.51808167 128.37208557 C14.52842321 125.08685225 14.52089355 121.80227687 14.50437045 118.51708674 C14.49048223 115.07344485 14.49698419 111.62983231 14.50050354 108.18617249 C14.50320234 102.40519777 14.48975747 96.62443107 14.46655273 90.84350586 C14.43993232 84.16553027 14.43820103 77.48790212 14.4499411 70.80989164 C14.46072923 64.37699064 14.45452455 57.94421499 14.44038582 51.51132393 C14.43463621 48.7773701 14.43470055 46.0435083 14.43945122 43.30955315 C14.44235801 39.49122972 14.42588101 35.67347609 14.40405273 31.85522461 C14.40855438 30.72313568 14.41305603 29.59104675 14.41769409 28.4246521 C14.40778946 27.38309464 14.39788483 26.34153717 14.38768005 25.26841736 C14.38525016 24.36640059 14.38282026 23.46438383 14.38031673 22.53503323 C13.79076846 18.60534954 12.00013479 15.93345914 9.125 13.25 C6.74259385 11.84858462 4.70258282 11.48164842 2 11 C2.00368717 11.58015114 2.00737434 12.16030228 2.01117325 12.75803375 C2.09964734 26.89755209 2.16576926 41.03702874 2.20724869 55.17676544 C2.22784287 62.01475488 2.25590277 68.85255914 2.30175781 75.69042969 C2.34600045 82.29102658 2.36914728 88.89148185 2.37950897 95.49223328 C2.38689193 98.0087944 2.4013091 100.52534518 2.42292023 103.04182434 C2.45201444 106.57043073 2.45595332 110.09824582 2.45410156 113.62695312 C2.46848267 114.66417511 2.48286377 115.70139709 2.49768066 116.77005005 C2.46236221 123.00181613 1.65434885 127.83309285 -2 133 C-4.75 135.5 -4.75 135.5 -7 137 C-7 136.34 -7 135.68 -7 135 C-8.98 134.01 -8.98 134.01 -11 133 C-9.84826645 130.53199953 -8.95216435 128.95216435 -7 127 C-7 126.01 -7 125.02 -7 124 C-6.98865432 122.44976302 -6.97580055 120.89953685 -6.96203613 119.34931946 C-6.95362198 118.39439606 -6.94520782 117.43947266 -6.9365387 116.45561218 C-6.92718796 115.40976456 -6.91783722 114.36391693 -6.90820312 113.28637695 C-6.89844955 112.1837854 -6.88869598 111.08119385 -6.87864685 109.94519043 C-6.84630705 106.29288624 -6.81377906 102.64058376 -6.78125 98.98828125 C-6.75881819 96.45908112 -6.73639809 93.92988088 -6.71398926 91.40068054 C-6.66096315 85.4190227 -6.60781879 79.43736592 -6.5546174 73.45570964 C-6.49405438 66.64561333 -6.43364201 59.83551568 -6.37324238 53.02541792 C-6.24899604 39.01694379 -6.12456024 25.00847135 -6 11 C-19.1170054 11.10741708 -32.23395477 11.22003328 -45.35085773 11.33933926 C-51.44116197 11.39456967 -57.53147101 11.44798993 -63.62182617 11.49731445 C-69.49625588 11.54495615 -75.37062639 11.59729901 -81.24498558 11.65294075 C-83.48931599 11.67336516 -85.73366263 11.6920781 -87.97802162 11.70907402 C-91.11472075 11.733116 -94.25130769 11.76317103 -97.38793945 11.79467773 C-98.32157822 11.8004332 -99.25521698 11.80618866 -100.21714783 11.81211853 C-101.07110138 11.82190735 -101.92505493 11.83169617 -102.80488586 11.84178162 C-103.54692922 11.84823417 -104.28897257 11.85468672 -105.05350208 11.8613348 C-107.21716569 11.93460154 -107.21716569 11.93460154 -110 13 C-113 11 -113 11 -113.6875 8.875 C-113.790625 8.25625 -113.89375 7.6375 -114 7 C-113.360625 6.87625 -112.72125 6.7525 -112.0625 6.625 C-111.381875 6.41875 -110.70125 6.2125 -110 6 C-109.67 5.34 -109.34 4.68 -109 4 C-106.2791335 3.0930445 -104.68108825 2.87007806 -101.88322449 2.85523987 C-101.04635605 2.84834137 -100.20948761 2.84144287 -99.34725952 2.83433533 C-98.43239777 2.83172195 -97.51753601 2.82910858 -96.57495117 2.82641602 C-95.1257151 2.8163855 -95.1257151 2.8163855 -93.64720154 2.80615234 C-91.54701693 2.79209465 -89.44681697 2.78020289 -87.34660912 2.77020454 C-84.02197587 2.75380268 -80.69745607 2.73056448 -77.37287903 2.70530701 C-67.91946053 2.63451246 -58.46599548 2.57443383 -49.01245117 2.52319336 C-43.23177187 2.49138084 -37.45122254 2.45009812 -31.67064857 2.40299797 C-29.46788181 2.38699026 -27.26508509 2.37466302 -25.06227684 2.36609077 C-21.97912801 2.35392084 -18.89628402 2.32976306 -15.81323242 2.30297852 C-14.45004883 2.3020948 -14.45004883 2.3020948 -13.05932617 2.30119324 C-8.31145787 2.24660931 -4.46236924 1.83429785 0 0 Z " fill="#33342F" transform="translate(160,28)"/>
<path d="M0 0 C3.92647041 -0.239988 4.80188682 -0.1398446 8.1875 2.25 C11.2625371 5.25670294 12.79965434 7.12168978 13.25726891 11.4119854 C13.26062059 12.31492395 13.26397228 13.21786251 13.26742554 14.14816284 C13.28022049 15.70843704 13.28022049 15.70843704 13.29327393 17.30023193 C13.29191437 19.00375824 13.29191437 19.00375824 13.29052734 20.74169922 C13.29724457 21.94208832 13.30396179 23.14247742 13.31088257 24.37924194 C13.32662564 27.66859869 13.33323761 30.95780389 13.33451414 34.24719381 C13.33593676 36.30362242 13.34020846 38.36002464 13.34550858 40.41644669 C13.36400645 47.59454272 13.37217951 54.77256452 13.37060547 61.95068359 C13.36940419 68.6354447 13.39050419 75.31988286 13.4220928 82.00456226 C13.44826858 87.74907823 13.45897222 93.4934888 13.45769465 99.23806393 C13.45718538 102.66668691 13.46284847 106.09502285 13.48405075 109.52358627 C13.50362695 113.34916802 13.49790453 117.17391681 13.48583984 120.99951172 C13.49707886 122.13114746 13.50831787 123.2627832 13.51989746 124.42871094 C13.47050881 130.58580974 13.19499416 134.35368862 9 139 C5.14896508 141.65904792 2.35612102 143.12283741 -2.30023193 143.14044189 C-3.20303894 143.14615204 -4.10584595 143.15186218 -5.03601074 143.15774536 C-6.02927368 143.15886322 -7.02253662 143.15998108 -8.04589844 143.16113281 C-9.08993835 143.16609772 -10.13397827 143.17106262 -11.20965576 143.17617798 C-14.67623546 143.19082648 -18.14276938 143.19760659 -21.609375 143.203125 C-24.01352948 143.20887486 -26.41768394 143.21463262 -28.82183838 143.22039795 C-33.8691835 143.23091602 -38.91651265 143.2367532 -43.96386719 143.24023438 C-50.43149768 143.24571645 -56.89891737 143.26973517 -63.36648178 143.29820633 C-68.33531306 143.31683182 -73.3040936 143.3220383 -78.27295685 143.32357025 C-80.65717978 143.32659821 -83.04140178 143.33463153 -85.42559052 143.34775543 C-88.76273099 143.36481134 -92.09935705 143.36293636 -95.43652344 143.35644531 C-96.42168945 143.3656601 -97.40685547 143.37487488 -98.421875 143.3843689 C-103.70870903 143.35215839 -107.44003077 142.98482324 -112 140 C-115.18388462 136.73006444 -116.25143723 134.43208453 -117 130 C-115.1286438 129.99453156 -115.1286438 129.99453156 -113.21948242 129.98895264 C-101.44890276 129.95197403 -89.67858403 129.89416964 -77.90820312 129.81609726 C-71.85724825 129.77662758 -65.8064388 129.74443639 -59.75537109 129.72900391 C-53.91318829 129.71383429 -48.0714053 129.67938247 -42.22940063 129.63169098 C-40.00317871 129.61688049 -37.7768997 129.60895918 -35.55062866 129.60811615 C-32.42655055 129.60574384 -29.30357494 129.57864145 -26.1796875 129.54589844 C-24.80619392 129.55344398 -24.80619392 129.55344398 -23.404953 129.56114197 C-16.87616697 129.45562276 -11.37955801 128.12607765 -6.47384644 123.58831406 C-2.56527105 119.16693657 -0.76028438 114.92965585 -0.7215271 109.07084656 C-0.71036362 108.10475967 -0.69920013 107.13867279 -0.68769836 106.14331055 C-0.68553818 105.09530273 -0.68337799 104.04729492 -0.68115234 102.9675293 C-0.67110672 101.85489212 -0.6610611 100.74225494 -0.65071106 99.59590149 C-0.61984562 95.92201245 -0.60283431 92.2481964 -0.5859375 88.57421875 C-0.56722859 86.02545034 -0.54765539 83.47668815 -0.5272522 80.92793274 C-0.48114367 74.90740921 -0.44374594 68.88689263 -0.41057932 62.86628896 C-0.37232288 56.010139 -0.322922 49.15408342 -0.27259517 42.29801309 C-0.16934897 28.19874545 -0.08006487 14.09941698 0 0 Z " fill="#F6F7F6" transform="translate(162,39)"/>
<path d="M0 0 C0.95604126 -0.01134979 1.91208252 -0.02269958 2.89709473 -0.03439331 C4.46035995 -0.02999741 4.46035995 -0.02999741 6.0552063 -0.0255127 C7.15805969 -0.03398224 8.26091309 -0.04245178 9.39718628 -0.05117798 C13.04779552 -0.07460269 16.69798458 -0.07556874 20.34866333 -0.07434082 C22.88448252 -0.08143944 25.4203001 -0.089138 27.95611572 -0.09741211 C33.27402841 -0.11086982 38.59178567 -0.11260095 43.90969849 -0.10656738 C50.04925002 -0.09992951 56.18820032 -0.12278089 62.32762992 -0.15988111 C68.24151854 -0.19431674 74.15522226 -0.20091177 80.06921768 -0.1967926 C82.58183711 -0.19848669 85.09446424 -0.20815675 87.60702133 -0.22593689 C91.12148463 -0.2480681 94.63449801 -0.23845219 98.1489563 -0.2208252 C99.70614883 -0.24072006 99.70614883 -0.24072006 101.2947998 -0.26101685 C105.692709 -0.20975734 109.21410016 -0.14266757 112.8616333 2.49536133 C115.63521597 5.88830781 116.06174514 8.06627666 116.23147583 12.39440918 C114.37891174 12.39987762 114.37891174 12.39987762 112.48892212 12.40545654 C100.83607012 12.44243648 89.18348165 12.50024231 77.53083038 12.57831192 C71.54040957 12.61778021 65.55013561 12.64997207 59.55960083 12.66540527 C53.77577081 12.68057582 47.99234456 12.71502925 42.20869446 12.7627182 C40.00480158 12.77752774 37.80085105 12.78544995 35.59690857 12.78629303 C32.5039593 12.78866563 29.41212318 12.81577025 26.31936646 12.84851074 C25.41305481 12.84348038 24.50674316 12.83845001 23.57296753 12.83326721 C17.07174706 12.93937808 11.58883712 14.28959291 6.70496368 18.80609512 C2.79697321 23.22798649 0.99176103 27.46462915 0.95300293 33.32356262 C0.94183945 34.28964951 0.93067596 35.25573639 0.91917419 36.25109863 C0.91701401 37.29910645 0.91485382 38.34711426 0.91262817 39.42687988 C0.90258255 40.53951706 0.89253693 41.65215424 0.88218689 42.79850769 C0.85132145 46.47239673 0.83431014 50.14621278 0.81741333 53.82019043 C0.79870442 56.36895884 0.77913122 58.91772103 0.75872803 61.46647644 C0.7126195 67.48699997 0.67522177 73.50751655 0.64205515 79.52812022 C0.60379871 86.38427018 0.55439783 93.24032576 0.504071 100.09639609 C0.4008248 114.19566373 0.3115407 128.2949922 0.23147583 142.39440918 C-4.18325166 142.30611463 -7.03387016 141.69569629 -10.15948486 138.5927887 C-13.97513538 133.588228 -13.59488504 128.28441217 -13.51315308 122.22033691 C-13.52045441 121.00975616 -13.52775574 119.79917542 -13.53527832 118.5519104 C-13.54867211 115.24747699 -13.53532977 111.94531368 -13.50861406 108.64110446 C-13.48588907 105.17525097 -13.4942073 101.70945218 -13.49810791 98.24354553 C-13.49987065 92.42555351 -13.47777839 86.60802898 -13.44088745 80.79016113 C-13.39853621 74.07290171 -13.39153817 67.35632622 -13.40401137 60.6389603 C-13.4154171 54.16383337 -13.40408721 47.68894619 -13.38166428 41.21385384 C-13.37239847 38.46396493 -13.37061308 35.71422328 -13.37483597 32.96432304 C-13.37931732 29.12232044 -13.35032751 25.28096301 -13.31784058 21.43908691 C-13.32527283 19.7346769 -13.32527283 19.7346769 -13.33285522 17.99583435 C-13.25168195 11.98128125 -13.00026177 8.04449446 -8.76852417 3.39440918 C-5.79139798 0.76171734 -3.96312113 0.01782131 0 0 Z " fill="#FAFAF9" transform="translate(36.768524169921875,17.6055908203125)"/>
<path d="M0 0 C1.07055634 -0.00335861 2.14111267 -0.00671722 3.24411011 -0.01017761 C6.77310351 -0.01965642 10.30204936 -0.02162873 13.83105469 -0.02270508 C16.2839154 -0.02591815 18.73677592 -0.02928226 21.18963623 -0.03279114 C26.32401983 -0.03877353 31.4583866 -0.04063178 36.59277344 -0.04003906 C43.18618734 -0.03993711 49.77949435 -0.05362697 56.37288284 -0.07081127 C61.43418885 -0.08189931 66.49546867 -0.08395931 71.55678558 -0.08342934 C73.98896404 -0.08461284 76.4211431 -0.08905519 78.85330963 -0.0967617 C82.24343005 -0.1065036 85.63331368 -0.10370735 89.0234375 -0.09765625 C90.03540192 -0.10327576 91.04736633 -0.10889526 92.08999634 -0.11468506 C93.00963165 -0.11049057 93.92926697 -0.10629608 94.87677002 -0.10197449 C96.07908201 -0.10279164 96.07908201 -0.10279164 97.30568314 -0.1036253 C99.25292969 0.14526367 99.25292969 0.14526367 101.25292969 2.14526367 C101.25292969 3.81193034 101.25292969 5.47859701 101.25292969 7.14526367 C100.68124243 7.14580844 100.10955517 7.14635321 99.52054405 7.14691448 C85.59847653 7.16189359 71.67673287 7.20470163 57.75484276 7.27735424 C51.02223476 7.31198094 44.28983101 7.33735667 37.55712891 7.34082031 C31.06008783 7.34418886 24.56346462 7.37351493 18.06657791 7.41869545 C15.58750016 7.43168832 13.10836101 7.43597185 10.62925339 7.43141747 C7.15738169 7.42652459 3.68701839 7.45254896 0.21533203 7.48583984 C-0.81037903 7.4772142 -1.83609009 7.46858856 -2.8928833 7.45970154 C-7.36438115 7.53160931 -10.70567787 7.60504463 -14.30722046 10.43647766 C-17.88118462 14.40438745 -18.9939805 16.99842472 -19.02122498 22.33139038 C-19.0312001 23.37998734 -19.04117523 24.42858429 -19.05145264 25.50895691 C-19.05211731 26.65399185 -19.05278198 27.79902679 -19.0534668 28.97875977 C-19.06179031 30.18890244 -19.07011383 31.3990451 -19.07868958 32.64585876 C-19.09865788 35.9621055 -19.10943031 39.27810118 -19.11451602 42.59438658 C-19.11816207 44.66756626 -19.12440339 46.74072187 -19.13151741 48.81389236 C-19.15600366 56.0503368 -19.16906212 63.28670962 -19.17260742 70.52319336 C-19.17624266 77.26254936 -19.20613872 84.00144994 -19.24801201 90.74066675 C-19.28273022 96.53189188 -19.29815612 102.32296617 -19.29885346 108.11429465 C-19.29964573 111.57093841 -19.30836054 115.02711804 -19.33685112 118.48365402 C-19.36792946 122.34027409 -19.35896475 126.19624169 -19.34643555 130.05297852 C-19.36126984 131.193965 -19.37610413 132.33495148 -19.39138794 133.51051331 C-19.38991942 140.14978544 -19.38991942 140.14978544 -16.33583069 145.83706665 C-13.46188127 148.40542879 -13.46188127 148.40542879 -9.93457031 149.52026367 C-8.88269531 149.72651367 -7.83082031 149.93276367 -6.74707031 150.14526367 C-8.39707031 152.78526367 -10.04707031 155.42526367 -11.74707031 158.14526367 C-17.25016003 157.15470752 -19.8198148 155.56924711 -23.38769531 151.28979492 C-27.93420297 144.11728716 -28.18384634 138.17750302 -28.15112305 129.81933594 C-28.1579863 128.59246063 -28.16484955 127.36558533 -28.17192078 126.10153198 C-28.18704124 122.7521539 -28.18869528 119.40333448 -28.18297839 116.0539639 C-28.17987786 113.25089747 -28.18598856 110.4478809 -28.19201714 107.64482158 C-28.20604123 101.02863405 -28.2045188 94.4125757 -28.19311523 87.79638672 C-28.18163595 80.98605287 -28.19571098 74.17611292 -28.22251171 67.36583096 C-28.24471048 61.50401409 -28.25129673 55.64232048 -28.2454353 49.78046459 C-28.24207446 46.28589021 -28.24442213 42.79156826 -28.26168633 39.2970295 C-28.28010969 35.39805949 -28.26592538 31.49956927 -28.2487793 27.60058594 C-28.25844727 26.45280167 -28.26811523 25.3050174 -28.27807617 24.12245178 C-28.20741188 16.43759229 -27.06955181 11.14286127 -22.03613281 5.08666992 C-21.48699219 4.63163086 -20.93785156 4.1765918 -20.37207031 3.70776367 C-19.82808594 3.23467773 -19.28410156 2.7615918 -18.72363281 2.27416992 C-13.26133716 -0.84559973 -6.10042595 -0.00275398 0 0 Z " fill="#33342E" transform="translate(43.7470703125,9.854736328125)"/>
<path d="M0 0 C0.74507812 0.02255859 1.49015625 0.04511719 2.2578125 0.06835938 C4.089409 0.12706439 5.91996653 0.21674243 7.75 0.3125 C7.75 2.2925 7.75 4.2725 7.75 6.3125 C3.79 6.3125 -0.17 6.3125 -4.25 6.3125 C-4.25 9.2825 -4.25 12.2525 -4.25 15.3125 C-0.29 15.3125 3.67 15.3125 7.75 15.3125 C7.75 17.2925 7.75 19.2725 7.75 21.3125 C3.79 21.3125 -0.17 21.3125 -4.25 21.3125 C-4.25 28.2425 -4.25 35.1725 -4.25 42.3125 C-0.62 42.3125 3.01 42.3125 6.75 42.3125 C6.75 44.2925 6.75 46.2725 6.75 48.3125 C-2.82 48.3125 -12.39 48.3125 -22.25 48.3125 C-22.25 46.3325 -22.25 44.3525 -22.25 42.3125 C-18.95 42.3125 -15.65 42.3125 -12.25 42.3125 C-12.25 35.3825 -12.25 28.4525 -12.25 21.3125 C-15.88 21.3125 -19.51 21.3125 -23.25 21.3125 C-23.25 19.3325 -23.25 17.3525 -23.25 15.3125 C-19.62 15.3125 -15.99 15.3125 -12.25 15.3125 C-12.3325 13.765625 -12.415 12.21875 -12.5 10.625 C-12.68240956 7.20482072 -12.37842446 5.55329586 -10.75 2.5 C-7.31170986 -0.50850387 -4.33292324 -0.2487986 0 0 Z " fill="#FBFBFB" transform="translate(88.25,74.6875)"/>
<path d="M0 0 C0.71484375 2.109375 0.71484375 2.109375 1 4 C-0.32 4.99 -1.64 5.98 -3 7 C-3.66 6.505 -4.32 6.01 -5 5.5 C-9.01034059 3.49482971 -11.54328182 3.70775618 -16 4 C-16.99 4.495 -16.99 4.495 -18 5 C-18 6.32 -18 7.64 -18 9 C-17.05898437 9.15855469 -16.11796875 9.31710938 -15.1484375 9.48046875 C-1.6946868 12.0013061 -1.6946868 12.0013061 2 17 C2.82681181 20.20244009 2.89073615 22.80723148 2 26 C-0.16577981 28.7826989 -2.85077273 30.42538637 -6 32 C-8.24655587 32.14977039 -10.49863768 32.22150174 -12.75 32.25 C-13.96171875 32.27578125 -15.1734375 32.3015625 -16.421875 32.328125 C-20.3157648 31.9710434 -22.6874098 31.03965124 -26 29 C-27.375 26.8125 -27.375 26.8125 -28 25 C-27.01 24.01 -26.02 23.02 -25 22 C-20.125 23.875 -20.125 23.875 -19 25 C-17.14712498 25.07226502 -15.29166122 25.0838122 -13.4375 25.0625 C-12.42558594 25.05347656 -11.41367188 25.04445313 -10.37109375 25.03515625 C-9.58863281 25.02355469 -8.80617188 25.01195313 -8 25 C-7.34 23.35 -6.68 21.7 -6 20 C-7.09699219 19.85304688 -8.19398437 19.70609375 -9.32421875 19.5546875 C-10.77885222 19.32945393 -12.23326887 19.10281689 -13.6875 18.875 C-14.7693457 18.73578125 -14.7693457 18.73578125 -15.87304688 18.59375 C-19.84220245 17.94128607 -22.28698293 17.18675931 -24.984375 14.10546875 C-27.44291832 10.31759677 -27.7258586 8.43580253 -27 4 C-25.25347373 1.08912289 -23.75388353 -0.53436606 -20.875 -2.3125 C-13.48233054 -4.08031226 -6.764057 -3.44351993 0 0 Z " fill="#EEEEEE" transform="translate(132,92)"/>
<path d="M0 0 C0.9404718 -0.00997513 1.8809436 -0.01995026 2.84991455 -0.03022766 C4.39512032 -0.03122467 4.39512032 -0.03122467 5.97154236 -0.03224182 C7.05807098 -0.04056534 8.14459961 -0.04888885 9.26405334 -0.0574646 C12.86832738 -0.08162485 16.47242045 -0.09034602 20.07676697 -0.09693909 C22.58201146 -0.10590384 25.0872554 -0.11502566 27.59249878 -0.1242981 C32.85248049 -0.14080911 38.11241803 -0.14852454 43.37242126 -0.15138245 C49.43289573 -0.15500805 55.49286074 -0.18482936 61.5531798 -0.22678703 C67.39817595 -0.26582185 73.24297232 -0.27697827 79.08808708 -0.2781086 C81.56670827 -0.2823055 84.0453301 -0.29471833 86.52386665 -0.31562614 C90.00166057 -0.34261671 93.47807061 -0.33768985 96.95591736 -0.32521057 C98.4798687 -0.34746201 98.4798687 -0.34746201 100.03460693 -0.37016296 C107.64541842 -0.29277449 114.28017618 1.57856035 120.07106113 6.75228214 C124.02261106 11.2216494 125.75516357 15.34947973 125.41661072 21.27415466 C124.75661072 20.94415466 124.09661072 20.61415466 123.41661072 20.27415466 C122.18616531 20.72835281 122.18616531 20.72835281 120.93086243 21.19172668 C116.28860854 22.62159168 112.01883185 22.58202936 107.18858337 22.59300232 C105.66571213 22.60807076 105.66571213 22.60807076 104.11207581 22.6234436 C100.76828051 22.65424621 97.42456519 22.67130282 94.08067322 22.68821716 C91.75753594 22.70693114 89.43440545 22.72650472 87.11128235 22.74690247 C81.00562031 22.79820529 74.89993624 22.83784106 68.79417419 22.87504578 C62.56019142 22.9150969 56.32630016 22.96618423 50.09239197 23.01634216 C37.86719585 23.11307963 25.64194804 23.19749152 13.41661072 23.27415466 C16.49609482 21.22116526 17.10395704 21.02493847 20.57376099 21.03364563 C21.84207008 21.02952164 21.84207008 21.02952164 23.13600159 21.02531433 C24.06028961 21.03250488 24.98457764 21.03969543 25.93687439 21.04710388 C26.91266953 21.04681183 27.88846466 21.04651978 28.89382935 21.04621887 C32.12416936 21.04761394 35.35427967 21.06318359 38.58457947 21.07884216 C40.82231521 21.08257166 43.06005257 21.08541893 45.29779053 21.0874176 C51.19150795 21.09505902 57.08512702 21.11471194 62.97880554 21.13682556 C68.99126352 21.157273 75.00373737 21.16641696 81.01622009 21.17649841 C92.81639355 21.1979573 104.61649396 21.23209943 116.41661072 21.27415466 C115.62855358 17.54879365 114.88644968 14.85585547 112.47540283 11.87077332 C107.86806973 9.46585213 103.60218313 9.70342908 98.47593689 9.72825623 C96.82161148 9.71274971 96.82161148 9.71274971 95.13386536 9.69692993 C91.49228848 9.66745712 87.85126634 9.66600175 84.20957947 9.66477966 C81.6832269 9.64980113 79.15688413 9.63307468 76.6305542 9.6146698 C70.66309882 9.57541535 64.69583153 9.55377677 58.72828227 9.54069591 C51.93255091 9.52481489 45.13700507 9.48639475 38.34138143 9.44610262 C24.36652037 9.36374771 10.3916638 9.30962815 -3.58338928 9.27415466 C-3.58338928 8.94415466 -3.58338928 8.61415466 -3.58338928 8.27415466 C33.37661072 8.27415466 70.33661072 8.27415466 108.41661072 8.27415466 C107.64021752 5.19961906 107.64021752 5.19961906 105.41661072 3.27415466 C105.74661072 2.94415466 106.07661072 2.61415466 106.41661072 2.27415466 C68.79661072 2.27415466 31.17661072 2.27415466 -7.58338928 2.27415466 C-4.41180041 0.15976208 -3.63022017 0.02065002 0 0 Z " fill="#5B5C57" transform="translate(36.58338928222656,8.725845336914063)"/>
<path d="M0 0 C0 0.33 0 0.66 0 1 C-2.31 1 -4.62 1 -7 1 C-7.309375 1.639375 -7.61875 2.27875 -7.9375 2.9375 C-9 5 -9 5 -10 6 C-10.23192865 7.51469448 -10.41215238 9.03754562 -10.5625 10.5625 C-10.64628906 11.38878906 -10.73007813 12.21507813 -10.81640625 13.06640625 C-10.87699219 13.70449219 -10.93757813 14.34257813 -11 15 C-11.33 15 -11.66 15 -12 15 C-12.61016949 6.27118644 -12.61016949 6.27118644 -10.5 1.875 C-6.8685691 -0.84857317 -4.46457279 -0.37204773 0 0 Z " fill="#C7C7C7" transform="translate(88,75)"/>
<path d="M0 0 C0 0.33 0 0.66 0 1 C-1.60875 1.12375 -1.60875 1.12375 -3.25 1.25 C-7.2738451 2.05476902 -8.48169253 2.87729874 -11 6 C-10.625 3.5625 -10.625 3.5625 -10 1 C-6.78548731 -0.60725635 -3.56387464 -0.05748185 0 0 Z " fill="#4A4A4A" transform="translate(124,95)"/>
</svg>
