<svg version="1.1" id="Layer_1" xmlns="http://www.w3.org/2000/svg" xmlns:xlink="http://www.w3.org/1999/xlink" x="0px" y="0px"
	 width="100%" viewBox="0 0 200 200" enable-background="new 0 0 200 200" xml:space="preserve">
<path fill="#181356" opacity="1.000000" stroke="none" 
	d="
M49.000000,201.000000 
	C33.083797,201.000000 17.167595,201.000000 1.000000,201.000000 
	C1.000000,189.313644 1.000000,177.625473 1.340207,165.357422 
	C7.446717,161.539825 15.058866,161.354385 18.621279,154.389252 
	C19.027937,153.594162 20.624193,153.369629 21.699341,152.960693 
	C27.103582,150.905182 32.536777,149.353790 33.946213,142.170090 
	C34.356117,140.080841 38.473045,138.595230 41.041828,137.091003 
	C43.234879,135.806793 46.002899,135.313477 47.876446,133.718414 
	C50.855339,131.182281 53.301487,128.020401 56.491379,124.561012 
	C55.473270,118.175041 55.638832,117.881783 61.036793,117.951630 
	C61.005737,117.966026 60.981853,117.901863 61.233391,118.066422 
	C62.029617,118.472389 62.574306,118.713791 63.338268,118.974213 
	C63.557541,118.993240 63.978535,119.121834 64.120644,119.431984 
	C68.867622,125.046303 75.057190,123.972763 81.255424,123.983612 
	C81.684479,124.122292 81.856102,124.177757 82.163605,124.454788 
	C82.833908,125.110535 83.368332,125.544731 83.919861,126.448639 
	C83.939728,139.612732 83.942490,152.307114 83.582809,164.985474 
	C76.270714,163.793610 76.203072,172.348099 71.399719,172.760818 
	C72.089088,175.696396 72.606903,177.901459 73.124725,180.106537 
	C70.358261,180.383392 67.592110,180.663452 64.824501,180.928360 
	C64.674034,180.942749 64.510574,180.832535 64.354584,180.776352 
	C61.828602,179.866760 59.845039,180.159943 58.699257,182.984558 
	C58.281288,184.014938 57.592953,185.335953 56.691696,185.706528 
	C49.629616,188.610153 49.772282,195.013000 49.000000,201.000000 
z"/>
<path fill="#181356" opacity="1.000000" stroke="none" 
	d="
M193.000000,0.999999 
	C195.654053,1.000000 198.308121,1.000000 201.000000,1.000000 
	C201.000000,29.020884 201.000000,57.041782 200.587158,85.534393 
	C197.502808,87.257225 193.737076,87.806694 192.390198,89.907181 
	C189.680618,94.132812 186.191818,95.920280 181.642075,97.085281 
	C179.828323,97.549713 178.358810,99.649033 176.904724,101.168800 
	C173.575302,104.648628 170.451035,108.329948 167.032928,111.717010 
	C165.792938,112.945747 163.826553,113.405762 162.412842,114.501869 
	C158.852493,117.262321 155.418076,120.185211 151.753738,122.725067 
	C151.253738,121.486145 150.933197,120.565132 150.665894,119.731003 
	C150.719162,119.817886 150.643784,119.628708 150.997177,119.598640 
	C156.944733,117.240250 158.338837,112.010841 160.333496,106.874077 
	C163.944290,104.577431 162.602448,102.745506 159.989471,100.960541 
	C159.778931,100.928490 159.353073,100.922119 159.294556,100.603455 
	C159.244522,99.853775 159.253036,99.422775 159.399292,98.645073 
	C158.998047,94.884094 158.459061,91.469818 158.007233,87.840736 
	C157.698639,87.133224 157.302872,86.640511 156.632889,85.951050 
	C152.281403,81.777435 148.691589,77.166054 142.478043,76.190483 
	C140.249527,75.840591 138.117294,74.877419 135.924530,73.820305 
	C134.946350,72.295547 133.984726,71.144638 132.899673,69.671471 
	C132.859146,67.570366 132.942078,65.791519 133.256058,63.842888 
	C133.584412,62.599323 133.516815,61.477436 133.813187,60.461758 
	C134.436615,58.325371 134.716049,55.762733 136.091888,54.235703 
	C139.577240,50.367386 143.535706,46.913681 147.426575,43.430042 
	C148.494980,42.473457 149.963165,41.464451 151.298706,41.389919 
	C157.728378,41.031124 160.451172,37.121967 162.159927,31.499678 
	C162.742905,29.581497 164.766174,26.961048 166.427338,26.722479 
	C171.587448,25.981400 174.502594,22.875893 177.571518,19.186331 
	C180.836761,15.260748 185.007782,12.100746 188.435684,8.293478 
	C190.325760,6.194227 191.501968,3.452229 193.000000,0.999999 
z"/>
<path fill="#121149" opacity="1.000000" stroke="none" 
	d="
M46.000000,1.000000 
	C63.020893,1.000000 80.041786,1.000000 97.530319,1.425609 
	C97.746231,8.960834 97.501213,9.289405 90.371971,10.106597 
	C86.550652,10.544619 83.654945,11.555525 81.931053,15.722872 
	C80.913200,18.183445 77.752136,19.729382 75.643982,21.778297 
	C74.512138,22.878338 73.568581,24.172110 72.540062,25.378462 
	C72.827553,25.697763 73.115044,26.017063 73.402527,26.336365 
	C71.957314,26.883429 70.512108,27.430492 69.066895,27.977556 
	C69.146263,28.379068 69.225624,28.780581 69.304993,29.182093 
	C75.058922,28.481194 80.812851,27.780296 87.912376,26.915487 
	C85.256340,25.610886 83.862823,24.926413 82.293045,24.155365 
	C86.925644,20.136003 89.577652,25.085775 93.362839,26.056099 
	C97.910530,28.536360 103.709473,28.566799 105.365906,34.144127 
	C73.789566,19.612749 42.642570,41.115875 38.629040,68.814278 
	C37.544800,76.296875 39.503410,84.220383 39.771988,91.755173 
	C37.627739,86.958313 35.776836,82.347786 33.416035,76.467125 
	C32.734032,78.595360 32.390862,79.088112 32.473419,79.494362 
	C33.982544,86.920555 33.993385,86.918419 26.037119,86.999878 
	C25.205313,87.008400 24.373211,87.033478 23.541731,87.020264 
	C19.923492,86.962769 17.658501,88.271622 16.844385,92.206520 
	C16.537052,93.691971 14.665984,95.515045 13.147470,95.963020 
	C8.837569,97.234505 7.878803,99.866852 8.448264,103.920845 
	C9.432042,110.924393 8.055115,112.482063 1.000000,113.000000 
	C1.000000,90.979103 1.000000,68.958214 1.444666,46.468681 
	C2.222289,46.000004 2.557716,46.026524 2.887823,45.995831 
	C6.436993,45.665821 11.816727,47.624786 9.853285,40.362186 
	C9.718991,39.865448 10.573875,38.963234 11.141968,38.436398 
	C15.891734,34.031590 23.070921,32.345478 25.618654,25.424644 
	C25.842524,24.816507 27.086111,24.657206 27.646145,24.084246 
	C28.853403,22.849115 30.478907,21.648357 30.937767,20.132240 
	C31.969000,16.724966 34.023380,15.036128 37.425095,15.071510 
	C40.763443,15.106234 42.782387,13.583649 43.626751,10.458170 
	C44.474350,7.320714 45.213387,4.153931 46.000000,1.000000 
z"/>
<path fill="#15124F" opacity="1.000000" stroke="none" 
	d="
M1.000000,113.468658 
	C8.055115,112.482063 9.432042,110.924393 8.448264,103.920845 
	C7.878803,99.866852 8.837569,97.234505 13.147470,95.963020 
	C14.665984,95.515045 16.537052,93.691971 16.844385,92.206520 
	C17.658501,88.271622 19.923492,86.962769 23.541731,87.020264 
	C24.373211,87.033478 25.205313,87.008400 26.037119,86.999878 
	C33.993385,86.918419 33.982544,86.920555 32.473419,79.494362 
	C32.390862,79.088112 32.734032,78.595360 33.416035,76.467125 
	C35.776836,82.347786 37.627739,86.958313 39.749207,91.762405 
	C40.019775,91.955971 40.051964,91.921387 40.050659,92.332809 
	C40.433887,97.381470 41.007866,101.913544 46.187099,103.869232 
	C46.150017,103.869614 46.149570,103.795448 46.170334,104.163345 
	C47.549061,105.954933 48.907024,107.378624 50.225384,108.896912 
	C50.185780,108.991493 49.996571,108.912384 50.197475,109.078171 
	C50.635582,109.496811 50.872784,109.749680 51.058250,110.007332 
	C51.006512,110.012123 50.996910,109.908653 51.197739,110.075546 
	C51.636215,110.496155 51.873871,110.749886 52.058311,110.915405 
	C52.005093,110.827194 52.181473,110.720711 52.283722,111.007690 
	C53.160397,111.870956 53.934826,112.447235 54.946907,113.283180 
	C57.145653,115.007637 59.106750,116.472435 61.067848,117.937225 
	C55.638832,117.881783 55.473270,118.175041 56.491379,124.561012 
	C53.301487,128.020401 50.855339,131.182281 47.876446,133.718414 
	C46.002899,135.313477 43.234879,135.806793 41.041828,137.091003 
	C38.473045,138.595230 34.356117,140.080841 33.946213,142.170090 
	C32.536777,149.353790 27.103582,150.905182 21.699341,152.960693 
	C20.624193,153.369629 19.027937,153.594162 18.621279,154.389252 
	C15.058866,161.354385 7.446717,161.539825 1.340207,164.888763 
	C1.000000,147.979111 1.000000,130.958206 1.000000,113.468658 
z"/>
<path fill="#15124F" opacity="1.000000" stroke="none" 
	d="
M105.728073,34.204445 
	C103.709473,28.566799 97.910530,28.536360 93.409912,25.738956 
	C93.398521,24.574394 93.702583,23.783155 94.348907,22.957954 
	C96.460686,22.949429 98.230194,22.974867 100.165398,23.302311 
	C107.561989,29.581446 115.107658,28.154774 118.884911,20.167255 
	C119.431610,19.011189 120.219917,17.745703 121.250916,17.079292 
	C127.149284,13.266741 129.734772,7.958967 129.000000,1.000000 
	C150.020889,1.000000 171.041794,1.000000 192.531342,0.999999 
	C191.501968,3.452229 190.325760,6.194227 188.435684,8.293478 
	C185.007782,12.100746 180.836761,15.260748 177.571518,19.186331 
	C174.502594,22.875893 171.587448,25.981400 166.427338,26.722479 
	C164.766174,26.961048 162.742905,29.581497 162.159927,31.499678 
	C160.451172,37.121967 157.728378,41.031124 151.298706,41.389919 
	C149.963165,41.464451 148.494980,42.473457 147.426575,43.430042 
	C143.535706,46.913681 139.577240,50.367386 136.091888,54.235703 
	C134.716049,55.762733 134.436615,58.325371 133.813187,60.461758 
	C133.516815,61.477436 133.584412,62.599323 133.131470,63.523582 
	C131.095520,61.294750 129.415237,59.215427 127.795288,57.120445 
	C127.855629,57.104786 127.886688,57.225529 127.793304,56.928768 
	C127.425674,56.077705 127.151436,55.523399 126.936951,55.005539 
	C126.996712,55.041977 126.923813,55.161491 126.809525,54.869766 
	C126.366066,54.043789 126.036888,53.509537 125.802780,53.030090 
	C125.897850,53.084896 125.788063,53.274925 125.760696,52.937599 
	C125.101494,51.758682 124.469650,50.917099 123.871674,50.078789 
	C123.905548,50.082066 123.892258,50.148823 123.868660,49.778744 
	C122.549004,47.950645 121.252945,46.492626 119.978310,45.018017 
	C119.999741,45.001427 119.987961,45.054333 119.824013,44.874275 
	C119.436157,44.458687 119.201691,44.234177 118.979355,44.009674 
	C119.002037,43.998665 118.980247,44.044151 118.819748,43.865921 
	C118.439743,43.454967 118.209457,43.233452 117.984665,43.011528 
	C118.000931,42.999916 117.975609,43.031197 117.817490,42.855099 
	C117.443184,42.448944 117.216415,42.229839 116.985611,42.012482 
	C116.992149,42.003277 116.969490,42.013412 116.943314,41.649475 
	C116.038925,36.894814 112.537086,36.441792 108.994278,36.029594 
	C108.974167,36.039124 108.972328,35.994644 108.794067,35.828510 
	C108.373672,35.448563 108.136673,35.229214 107.961845,35.001991 
	C108.018898,34.999645 108.023613,35.113754 107.753647,34.967796 
	C106.912476,34.587116 106.341270,34.352394 105.781860,34.150154 
	C105.793648,34.182632 105.728073,34.204445 105.728073,34.204445 
z"/>
<path fill="#1A155E" opacity="1.000000" stroke="none" 
	d="
M151.933182,123.042992 
	C155.418076,120.185211 158.852493,117.262321 162.412842,114.501869 
	C163.826553,113.405762 165.792938,112.945747 167.032928,111.717010 
	C170.451035,108.329948 173.575302,104.648628 176.904724,101.168800 
	C178.358810,99.649033 179.828323,97.549713 181.642075,97.085281 
	C186.191818,95.920280 189.680618,94.132812 192.390198,89.907181 
	C193.737076,87.806694 197.502808,87.257225 200.587158,86.003052 
	C201.000000,103.354225 201.000000,120.708458 200.701813,138.686859 
	C198.245331,141.051743 195.911285,142.620178 193.983612,144.586914 
	C192.402100,146.200500 190.529266,148.142822 190.145416,150.193939 
	C189.216492,155.157562 187.038986,158.267136 181.944672,159.645615 
	C179.665298,160.262421 177.400177,162.055511 175.832596,163.909912 
	C173.605667,166.544281 171.377350,167.271561 168.466965,165.577469 
	C165.991364,164.136459 164.422226,164.579971 163.626404,167.417740 
	C162.743118,170.567337 160.735321,171.139481 157.856430,169.971085 
	C156.639389,169.477142 155.288681,169.312500 153.952225,168.655365 
	C153.249420,166.846863 152.593109,165.381165 152.105011,163.625793 
	C153.331665,161.854324 154.526001,160.449936 155.422409,158.875885 
	C157.854797,154.604782 161.032196,150.504730 159.253983,144.667435 
	C159.234314,143.507950 159.268265,142.733276 159.434448,141.603363 
	C161.179672,133.436508 155.938049,128.499039 151.933182,123.042992 
z"/>
<path fill="#1A1662" opacity="1.000000" stroke="none" 
	d="
M153.998734,168.998169 
	C155.288681,169.312500 156.639389,169.477142 157.856430,169.971085 
	C160.735321,171.139481 162.743118,170.567337 163.626404,167.417740 
	C164.422226,164.579971 165.991364,164.136459 168.466965,165.577469 
	C171.377350,167.271561 173.605667,166.544281 175.832596,163.909912 
	C177.400177,162.055511 179.665298,160.262421 181.944672,159.645615 
	C187.038986,158.267136 189.216492,155.157562 190.145416,150.193939 
	C190.529266,148.142822 192.402100,146.200500 193.983612,144.586914 
	C195.911285,142.620178 198.245331,141.051743 200.701813,139.155518 
	C201.000000,159.596329 201.000000,180.192673 201.000000,201.000000 
	C178.979553,201.000000 156.958435,201.000000 134.471680,200.583878 
	C134.582413,197.615265 134.529449,194.643784 135.883942,192.609344 
	C137.873917,189.620392 141.089279,187.478775 143.378616,184.649323 
	C146.006577,181.401413 148.256378,178.839737 152.772247,182.123322 
	C153.641479,182.755341 156.236603,181.013763 158.035538,180.367172 
	C157.152100,178.687195 156.580887,176.682266 155.282166,175.434555 
	C154.318695,174.508926 152.410461,174.566681 150.670837,174.121902 
	C151.647171,171.980743 152.325729,170.492615 153.252869,169.002838 
	C153.501450,169.001205 153.998734,168.998169 153.998734,168.998169 
z"/>
<path fill="#1A145C" opacity="1.000000" stroke="none" 
	d="
M49.468658,201.000000 
	C49.772282,195.013000 49.629616,188.610153 56.691696,185.706528 
	C57.592953,185.335953 58.281288,184.014938 58.699257,182.984558 
	C59.845039,180.159943 61.828602,179.866760 64.354584,180.776352 
	C64.510574,180.832535 64.674034,180.942749 64.824501,180.928360 
	C67.592110,180.663452 70.358261,180.383392 73.124725,180.106537 
	C72.606903,177.901459 72.089088,175.696396 71.399719,172.760818 
	C76.203072,172.348099 76.270714,163.793610 83.589905,165.319946 
	C83.966370,166.116516 83.973289,166.562561 83.694595,167.068512 
	C82.021919,169.165771 80.634857,171.203140 78.377708,174.518524 
	C82.527969,174.518524 85.203621,174.284592 87.822243,174.571350 
	C92.147461,175.044998 94.343613,173.116837 95.449379,169.016846 
	C97.926910,169.019165 99.967621,169.032898 101.973991,169.395248 
	C101.267387,172.829407 102.641670,174.033066 105.651733,173.995361 
	C110.145035,173.939041 114.656349,173.799332 119.127174,174.133835 
	C121.256721,174.293152 123.310585,175.463898 126.074287,176.407013 
	C118.352257,182.736435 107.528282,180.576401 102.913139,189.773911 
	C101.858688,191.875305 99.557625,193.361649 97.791458,195.091400 
	C96.776222,196.085693 95.696053,197.015411 94.621384,197.946808 
	C93.428345,198.980789 92.208290,199.983612 91.000000,201.000000 
	C77.312439,201.000000 63.624878,201.000000 49.468658,201.000000 
z"/>
<path fill="#120D44" opacity="1.000000" stroke="none" 
	d="
M45.531342,1.000000 
	C45.213387,4.153931 44.474350,7.320714 43.626751,10.458170 
	C42.782387,13.583649 40.763443,15.106234 37.425095,15.071510 
	C34.023380,15.036128 31.969000,16.724966 30.937767,20.132240 
	C30.478907,21.648357 28.853403,22.849115 27.646145,24.084246 
	C27.086111,24.657206 25.842524,24.816507 25.618654,25.424644 
	C23.070921,32.345478 15.891734,34.031590 11.141968,38.436398 
	C10.573875,38.963234 9.718991,39.865448 9.853285,40.362186 
	C11.816727,47.624786 6.436993,45.665821 2.887823,45.995831 
	C2.557716,46.026524 2.222289,46.000004 1.444666,46.000023 
	C1.000000,31.073294 1.000000,16.146585 1.000000,1.000000 
	C15.686830,1.000000 30.374756,1.000000 45.531342,1.000000 
z"/>
<path fill="#1A155E" opacity="1.000000" stroke="none" 
	d="
M91.468658,201.000000 
	C92.208290,199.983612 93.428345,198.980789 94.621384,197.946808 
	C95.696053,197.015411 96.776222,196.085693 97.791458,195.091400 
	C99.557625,193.361649 101.858688,191.875305 102.913139,189.773911 
	C107.528282,180.576401 118.352257,182.736435 126.074287,176.407013 
	C123.310585,175.463898 121.256721,174.293152 119.127174,174.133835 
	C114.656349,173.799332 110.145035,173.939041 105.651733,173.995361 
	C102.641670,174.033066 101.267387,172.829407 102.441521,169.379028 
	C114.948387,168.986786 126.953400,168.959396 139.166763,169.219208 
	C144.068924,173.432724 148.493301,170.043030 153.004272,169.004471 
	C152.325729,170.492615 151.647171,171.980743 150.670837,174.121902 
	C152.410461,174.566681 154.318695,174.508926 155.282166,175.434555 
	C156.580887,176.682266 157.152100,178.687195 158.035538,180.367172 
	C156.236603,181.013763 153.641479,182.755341 152.772247,182.123322 
	C148.256378,178.839737 146.006577,181.401413 143.378616,184.649323 
	C141.089279,187.478775 137.873917,189.620392 135.883942,192.609344 
	C134.529449,194.643784 134.582413,197.615265 134.003021,200.583878 
	C119.979103,201.000000 105.958214,201.000000 91.468658,201.000000 
z"/>
<path fill="#13104D" opacity="1.000000" stroke="none" 
	d="
M94.006638,22.991917 
	C93.702583,23.783155 93.398521,24.574394 93.047386,25.682774 
	C89.577652,25.085775 86.925644,20.136003 82.293045,24.155365 
	C83.862823,24.926413 85.256340,25.610886 87.912376,26.915487 
	C80.812851,27.780296 75.058922,28.481194 69.304993,29.182093 
	C69.225624,28.780581 69.146263,28.379068 69.066895,27.977556 
	C70.512108,27.430492 71.957314,26.883429 73.402527,26.336365 
	C73.115044,26.017063 72.827553,25.697763 72.540062,25.378462 
	C73.568581,24.172110 74.512138,22.878338 75.643982,21.778297 
	C77.752136,19.729382 80.913200,18.183445 81.931053,15.722872 
	C83.654945,11.555525 86.550652,10.544619 90.371971,10.106597 
	C97.501213,9.289405 97.746231,8.960834 97.998978,1.425609 
	C108.020897,1.000000 118.041786,1.000000 128.531342,1.000000 
	C129.734772,7.958967 127.149284,13.266741 121.250916,17.079292 
	C120.219917,17.745703 119.431610,19.011189 118.884911,20.167255 
	C115.107658,28.154774 107.561989,29.581446 100.488953,23.372374 
	C101.861229,23.062359 103.075645,22.984285 105.107803,22.853640 
	C99.689781,17.731058 96.116096,18.077391 94.006638,22.991917 
M110.879158,22.126825 
	C110.707375,21.966839 110.535599,21.806850 110.363815,21.646860 
	C110.275627,21.748550 110.187447,21.850241 110.099266,21.951933 
	C110.304092,22.071720 110.508911,22.191505 110.879158,22.126825 
z"/>
<path fill="#0CEE84" opacity="1.000000" stroke="none" 
	d="
M61.036793,117.951630 
	C59.106750,116.472435 57.145653,115.007637 54.866890,112.996490 
	C53.759979,111.873657 52.970726,111.297180 52.181473,110.720711 
	C52.181473,110.720711 52.005093,110.827194 52.032356,110.605194 
	C51.705379,110.225006 51.351147,110.066833 50.996910,109.908653 
	C50.996910,109.908653 51.006512,110.012123 51.034012,109.697411 
	C50.706528,109.225929 50.351547,109.069160 49.996567,108.912384 
	C49.996571,108.912384 50.185780,108.991493 50.110283,108.588745 
	C48.739719,106.722473 47.444645,105.258957 46.149574,103.795448 
	C46.149570,103.795448 46.150017,103.869614 46.089695,103.530762 
	C44.036903,99.435074 42.044434,95.678230 40.051964,91.921387 
	C40.051964,91.921387 40.019775,91.955971 40.042553,91.948746 
	C39.503410,84.220383 37.544800,76.296875 38.629040,68.814278 
	C42.642570,41.115875 73.789566,19.612749 105.365906,34.144127 
	C105.728073,34.204445 105.793648,34.182632 105.974213,34.420876 
	C106.777725,34.810665 107.400673,34.962212 108.023613,35.113754 
	C108.023613,35.113754 108.018898,34.999645 108.003494,35.276337 
	C108.316177,35.700230 108.644249,35.847435 108.972328,35.994644 
	C108.972328,35.994644 108.974167,36.039124 109.176842,36.305904 
	C111.909508,38.386261 114.439499,40.199837 116.969490,42.013412 
	C116.969490,42.013412 116.992149,42.003277 117.055939,42.259659 
	C117.405029,42.687756 117.690315,42.859474 117.975609,43.031197 
	C117.975609,43.031197 118.000931,42.999916 118.066895,43.254799 
	C118.415314,43.687840 118.697784,43.865993 118.980247,44.044151 
	C118.980247,44.044151 119.002037,43.998665 119.061569,44.258251 
	C119.410057,44.696667 119.699005,44.875500 119.987961,45.054333 
	C119.987961,45.054333 119.999741,45.001427 120.086761,45.325657 
	C121.413277,47.149532 122.652763,48.649178 123.892258,50.148823 
	C123.892258,50.148823 123.905548,50.082066 123.938301,50.391762 
	C124.576729,51.559284 125.182396,52.417103 125.788063,53.274925 
	C125.788063,53.274925 125.897850,53.084896 125.827400,53.364365 
	C126.145905,54.149719 126.534859,54.655605 126.923813,55.161491 
	C126.923813,55.161491 126.996712,55.041977 126.928604,55.334549 
	C127.202560,56.159924 127.544624,56.692726 127.886688,57.225529 
	C127.886688,57.225529 127.855629,57.104786 127.845184,57.506310 
	C128.992401,63.568886 130.150070,69.229942 131.265030,75.088333 
	C131.222321,75.285675 131.153198,75.683525 130.756165,75.853287 
	C128.068420,76.304482 125.777229,76.830460 123.487122,76.825752 
	C112.520523,76.803230 101.550545,76.765518 90.589851,76.451042 
	C86.832130,76.343231 85.030571,77.345963 85.068359,81.368729 
	C85.197929,95.160919 85.157204,108.954712 85.109833,122.856796 
	C85.038269,122.965698 84.956543,123.213181 84.577606,123.187057 
	C83.188782,123.187645 82.178894,123.214348 80.735474,123.144867 
	C74.860809,121.739731 69.419670,120.430779 63.978535,119.121834 
	C63.978535,119.121834 63.557541,118.993240 63.194595,118.681839 
	C62.215050,118.214249 61.598454,118.058052 60.981853,117.901855 
	C60.981853,117.901863 61.005737,117.966026 61.036793,117.951630 
z"/>
<path fill="#031E68" opacity="1.000000" stroke="none" 
	d="
M81.169006,123.241051 
	C82.178894,123.214348 83.188782,123.187645 84.626358,123.639473 
	C85.028244,138.079269 85.002441,152.040527 84.891083,166.291077 
	C84.756271,166.775314 84.707016,166.970291 84.489059,167.123138 
	C84.320358,167.081009 83.980209,167.008621 83.980209,167.008621 
	C83.973289,166.562561 83.966370,166.116516 83.952347,165.335983 
	C83.942490,152.307114 83.939728,139.612732 83.806503,126.205353 
	C83.126602,125.072655 82.577164,124.652946 82.027733,124.233231 
	C81.856102,124.177757 81.684479,124.122292 81.293335,123.818100 
	C81.073799,123.569389 81.169006,123.241051 81.169006,123.241051 
z"/>
<path fill="#15124F" opacity="1.000000" stroke="none" 
	d="
M80.735474,123.144867 
	C81.169006,123.241051 81.073799,123.569389 81.035889,123.734894 
	C75.057190,123.972763 68.867622,125.046303 64.120644,119.431984 
	C69.419670,120.430779 74.860809,121.739731 80.735474,123.144867 
z"/>
<path fill="#15124F" opacity="1.000000" stroke="none" 
	d="
M82.163605,124.454788 
	C82.577164,124.652946 83.126602,125.072655 83.789391,125.735649 
	C83.368332,125.544731 82.833908,125.110535 82.163605,124.454788 
z"/>
<path fill="#15124F" opacity="1.000000" stroke="none" 
	d="
M61.233391,118.066422 
	C61.598454,118.058052 62.215050,118.214249 62.975319,118.662811 
	C62.574306,118.713791 62.029617,118.472389 61.233391,118.066422 
z"/>
<path fill="#057AF1" opacity="1.000000" stroke="none" 
	d="
M84.976639,166.001801 
	C85.002441,152.040527 85.028244,138.079269 85.005295,123.665588 
	C84.956543,123.213181 85.038269,122.965698 85.518341,122.915749 
	C94.340721,122.779816 102.109177,120.485268 109.132019,116.117584 
	C123.637245,107.096405 130.893570,93.805565 131.936340,76.761543 
	C147.890137,76.893555 156.150650,83.732635 159.261551,98.991768 
	C159.253036,99.422775 159.244522,99.853775 159.176544,100.996346 
	C158.800003,108.867035 155.223755,114.485161 150.643784,119.628708 
	C150.643784,119.628708 150.719162,119.817886 150.382248,119.803329 
	C148.203751,120.853897 146.983002,121.970650 149.396576,123.780121 
	C155.457687,128.324203 158.269669,134.662231 159.302216,141.958603 
	C159.268265,142.733276 159.234314,143.507950 159.132355,145.034866 
	C155.768799,160.498962 147.485580,167.188522 132.425049,167.214783 
	C118.494041,167.239059 104.562592,167.247772 90.632271,167.140823 
	C88.744263,167.126328 86.861717,166.399033 84.976639,166.001801 
z"/>
<path fill="#102375" opacity="1.000000" stroke="none" 
	d="
M159.399292,98.645073 
	C156.150650,83.732635 147.890137,76.893555 131.907211,76.460236 
	C131.357590,76.031578 131.255402,75.857552 131.153198,75.683525 
	C131.153198,75.683525 131.222321,75.285675 131.516296,75.030144 
	C132.276016,74.564293 132.741760,74.353973 133.510361,74.133522 
	C134.222305,74.108841 134.631409,74.094292 135.265305,74.111160 
	C135.490097,74.142578 135.941116,74.194153 135.941116,74.194153 
	C138.117294,74.877419 140.249527,75.840591 142.478043,76.190483 
	C148.691589,77.166054 152.281403,81.777435 156.739136,86.198410 
	C157.386414,87.113533 157.653244,87.584534 157.920074,88.055542 
	C158.459061,91.469818 158.998047,94.884094 159.399292,98.645073 
z"/>
<path fill="#102375" opacity="1.000000" stroke="none" 
	d="
M159.434464,141.603363 
	C158.269669,134.662231 155.457687,128.324203 149.396576,123.780121 
	C146.983002,121.970650 148.203751,120.853897 150.328979,119.716446 
	C150.933197,120.565132 151.253738,121.486145 151.753738,122.725067 
	C155.938049,128.499039 161.179672,133.436508 159.434464,141.603363 
z"/>
<path fill="#102375" opacity="1.000000" stroke="none" 
	d="
M150.997177,119.598640 
	C155.223755,114.485161 158.800003,108.867035 159.235077,101.315018 
	C159.353073,100.922119 159.778931,100.928490 159.950195,101.387794 
	C160.093506,103.562027 160.065567,105.276955 160.037628,106.991882 
	C158.338837,112.010841 156.944733,117.240250 150.997177,119.598640 
z"/>
<path fill="#121149" opacity="1.000000" stroke="none" 
	d="
M133.207520,74.143654 
	C132.741760,74.353973 132.276016,74.564293 131.558990,74.832809 
	C130.150070,69.229942 128.992401,63.568886 127.784836,57.521969 
	C129.415237,59.215427 131.095520,61.294750 132.900391,63.693375 
	C132.942078,65.791519 132.859146,67.570366 132.900223,70.051308 
	C133.037460,71.512810 133.050705,72.272217 133.093201,73.310486 
	C133.150818,73.774117 133.179169,73.958885 133.207520,74.143654 
z"/>
<path fill="#1A155E" opacity="1.000000" stroke="none" 
	d="
M160.333496,106.874077 
	C160.065567,105.276955 160.093506,103.562027 160.160721,101.419846 
	C162.602448,102.745506 163.944290,104.577431 160.333496,106.874077 
z"/>
<path fill="#15124F" opacity="1.000000" stroke="none" 
	d="
M133.063950,73.031616 
	C133.050705,72.272217 133.037460,71.512810 133.023666,70.373573 
	C133.984726,71.144638 134.946350,72.295547 135.924530,73.820305 
	C135.941116,74.194153 135.490097,74.142578 135.034134,73.946579 
	C134.073425,73.510925 133.568695,73.271271 133.063950,73.031616 
z"/>
<path fill="#1A155E" opacity="1.000000" stroke="none" 
	d="
M158.007233,87.840744 
	C157.653244,87.584534 157.386414,87.113533 157.013336,86.395172 
	C157.302872,86.640511 157.698639,87.133224 158.007233,87.840744 
z"/>
<path fill="#121149" opacity="1.000000" stroke="none" 
	d="
M40.050659,92.332809 
	C42.044434,95.678230 44.036903,99.435074 46.126778,103.530380 
	C41.007866,101.913544 40.433887,97.381470 40.050659,92.332809 
z"/>
<path fill="#121149" opacity="1.000000" stroke="none" 
	d="
M46.170334,104.163345 
	C47.444645,105.258957 48.739719,106.722473 50.149887,108.494156 
	C48.907024,107.378624 47.549061,105.954933 46.170334,104.163345 
z"/>
<path fill="#121149" opacity="1.000000" stroke="none" 
	d="
M52.283722,111.007690 
	C52.970726,111.297180 53.759979,111.873657 54.629242,112.736832 
	C53.934826,112.447235 53.160397,111.870956 52.283722,111.007690 
z"/>
<path fill="#121149" opacity="1.000000" stroke="none" 
	d="
M51.197739,110.075546 
	C51.351147,110.066833 51.705379,110.225006 52.085571,110.693398 
	C51.873871,110.749886 51.636215,110.496155 51.197739,110.075546 
z"/>
<path fill="#121149" opacity="1.000000" stroke="none" 
	d="
M50.197472,109.078171 
	C50.351547,109.069160 50.706528,109.225929 51.085747,109.692619 
	C50.872784,109.749680 50.635582,109.496811 50.197472,109.078171 
z"/>
<path fill="#121149" opacity="1.000000" stroke="none" 
	d="
M94.348907,22.957954 
	C96.116096,18.077391 99.689781,17.731058 105.107803,22.853640 
	C103.075645,22.984285 101.861229,23.062359 100.323257,23.070370 
	C98.230194,22.974867 96.460686,22.949429 94.348907,22.957954 
z"/>
<path fill="#121149" opacity="1.000000" stroke="none" 
	d="
M116.943314,41.649475 
	C114.439499,40.199837 111.909508,38.386261 109.196953,36.296371 
	C112.537086,36.441792 116.038925,36.894814 116.943314,41.649475 
z"/>
<path fill="#121149" opacity="1.000000" stroke="none" 
	d="
M123.868660,49.778744 
	C122.652763,48.649178 121.413277,47.149532 120.065338,45.342247 
	C121.252945,46.492626 122.549004,47.950645 123.868660,49.778744 
z"/>
<path fill="#121149" opacity="1.000000" stroke="none" 
	d="
M125.760696,52.937595 
	C125.182396,52.417103 124.576729,51.559284 123.904427,50.388489 
	C124.469650,50.917099 125.101494,51.758682 125.760696,52.937595 
z"/>
<path fill="#121149" opacity="1.000000" stroke="none" 
	d="
M107.753647,34.967796 
	C107.400673,34.962212 106.777725,34.810665 105.962425,34.388397 
	C106.341270,34.352394 106.912476,34.587116 107.753647,34.967796 
z"/>
<path fill="#121149" opacity="1.000000" stroke="none" 
	d="
M126.809525,54.869766 
	C126.534859,54.655605 126.145905,54.149719 125.732330,53.309555 
	C126.036888,53.509537 126.366066,54.043789 126.809525,54.869766 
z"/>
<path fill="#121149" opacity="1.000000" stroke="none" 
	d="
M127.793304,56.928768 
	C127.544624,56.692726 127.202560,56.159924 126.868843,55.298111 
	C127.151436,55.523399 127.425674,56.077705 127.793304,56.928768 
z"/>
<path fill="#121149" opacity="1.000000" stroke="none" 
	d="
M119.824013,44.874275 
	C119.699005,44.875500 119.410057,44.696667 119.038887,44.269264 
	C119.201691,44.234177 119.436157,44.458687 119.824013,44.874275 
z"/>
<path fill="#121149" opacity="1.000000" stroke="none" 
	d="
M117.817490,42.855099 
	C117.690315,42.859474 117.405029,42.687756 117.049400,42.268860 
	C117.216415,42.229839 117.443184,42.448944 117.817490,42.855099 
z"/>
<path fill="#121149" opacity="1.000000" stroke="none" 
	d="
M108.794067,35.828510 
	C108.644249,35.847435 108.316177,35.700230 107.946442,35.278679 
	C108.136673,35.229214 108.373672,35.448563 108.794067,35.828510 
z"/>
<path fill="#121149" opacity="1.000000" stroke="none" 
	d="
M118.819748,43.865921 
	C118.697784,43.865993 118.415314,43.687840 118.050621,43.266411 
	C118.209457,43.233452 118.439743,43.454967 118.819748,43.865921 
z"/>
<path fill="#102375" opacity="1.000000" stroke="none" 
	d="
M84.891083,166.291061 
	C86.861717,166.399033 88.744263,167.126328 90.632271,167.140823 
	C104.562592,167.247772 118.494041,167.239059 132.425049,167.214783 
	C147.485580,167.188522 155.768799,160.498962 159.185974,145.419678 
	C161.032196,150.504730 157.854797,154.604782 155.422409,158.875885 
	C154.526001,160.449936 153.331665,161.854324 151.801117,163.786285 
	C147.205505,165.801651 143.081955,167.366837 138.958405,168.932037 
	C126.953400,168.959396 114.948387,168.986786 102.475853,169.030396 
	C99.967621,169.032898 97.926910,169.019165 95.042282,169.004608 
	C91.494064,169.534805 88.789780,170.065826 85.749023,170.662918 
	C85.422104,169.615097 85.039932,168.390182 84.657761,167.165283 
	C84.707016,166.970291 84.756271,166.775314 84.891083,166.291061 
z"/>
<path fill="#19165B" opacity="1.000000" stroke="none" 
	d="
M139.166763,169.219208 
	C143.081955,167.366837 147.205505,165.801651 151.632935,164.075974 
	C152.593109,165.381165 153.249420,166.846863 153.952225,168.655365 
	C153.998734,168.998169 153.501450,169.001205 153.252869,169.002838 
	C148.493301,170.043030 144.068924,173.432724 139.166763,169.219208 
z"/>
<path fill="#181356" opacity="1.000000" stroke="none" 
	d="
M84.489059,167.123138 
	C85.039932,168.390182 85.422104,169.615097 85.749023,170.662918 
	C88.789780,170.065826 91.494064,169.534805 94.605453,169.016022 
	C94.343613,173.116837 92.147461,175.044998 87.822243,174.571350 
	C85.203621,174.284592 82.527969,174.518524 78.377708,174.518524 
	C80.634857,171.203140 82.021919,169.165771 83.694595,167.068512 
	C83.980209,167.008621 84.320358,167.081009 84.489059,167.123138 
z"/>
<path fill="#15124F" opacity="1.000000" stroke="none" 
	d="
M110.796448,22.219059 
	C110.508911,22.191505 110.304092,22.071720 110.099266,21.951931 
	C110.187447,21.850241 110.275627,21.748550 110.363815,21.646862 
	C110.535599,21.806850 110.707375,21.966839 110.796448,22.219059 
z"/>
<path fill="#0EC0CB" opacity="1.000000" stroke="none" 
	d="
M130.756165,75.853287 
	C131.255402,75.857552 131.357590,76.031578 131.488892,76.506912 
	C130.893570,93.805565 123.637245,107.096405 109.132019,116.117584 
	C102.109177,120.485268 94.340721,122.779816 85.589912,122.806847 
	C85.157204,108.954712 85.197929,95.160919 85.068359,81.368729 
	C85.030571,77.345963 86.832130,76.343231 90.589851,76.451042 
	C101.550545,76.765518 112.520523,76.803230 123.487122,76.825752 
	C125.777229,76.830460 128.068420,76.304482 130.756165,75.853287 
z"/>
<path fill="#181356" opacity="1.000000" stroke="none" 
	d="
M133.093201,73.310486 
	C133.568695,73.271271 134.073425,73.510925 134.809341,73.915169 
	C134.631409,74.094292 134.222305,74.108841 133.510361,74.133522 
	C133.179169,73.958885 133.150818,73.774117 133.093201,73.310486 
z"/>
</svg>